<?xml version="1.0" encoding="UTF-8" standalone="no"?>
<svg width="638px" height="53px" viewBox="0 0 638 53" version="1.1" xmlns="http://www.w3.org/2000/svg" xmlns:xlink="http://www.w3.org/1999/xlink">
    <defs></defs>
    <g id="Page-1" stroke="none" stroke-width="1" fill="none" fill-rule="evenodd">
        <g id="Artboard-1" transform="translate(-246.000000, -109.000000)">
            <g id="site-logo" transform="translate(246.000000, 109.000000)">
                <path d="M334.064,52 L334.064,1.6 L331.76,1.6 L331.76,26.224 L297.416,26.224 L297.416,1.6 L295.112,1.6 L295.112,52 L297.416,52 L297.416,28.456 L331.76,28.456 L331.76,52 L334.064,52 Z M370.856,0.952 C353.288,0.952 345.656,14.344 345.656,26.656 C345.656,39.976 354.224,52.72 370.928,52.72 C387.704,52.72 396.2,40.12 396.272,26.8 C396.272,13.552 387.848,0.88 370.856,0.952 L370.856,0.952 Z M393.968,26.8 C394.04,38.896 385.976,50.488 370.928,50.488 C355.808,50.488 348.032,38.608 347.96,26.728 C347.888,14.92 355.448,3.184 370.856,3.184 C386.048,3.184 393.968,14.272 393.968,26.8 L393.968,26.8 Z M398.576,3.832 L417.44,3.832 L417.44,52 L419.744,52 L419.744,3.832 L438.68,3.832 L438.68,1.6 L398.576,1.6 L398.576,3.832 Z M466.184,0.952 C448.616,0.952 440.984,14.344 440.984,26.656 C440.984,39.976 449.552,52.72 466.256,52.72 C483.032,52.72 491.528,40.12 491.6,26.8 C491.6,13.552 483.176,0.88 466.184,0.952 L466.184,0.952 Z M489.296,26.8 C489.368,38.896 481.304,50.488 466.256,50.488 C451.136,50.488 443.36,38.608 443.288,26.728 C443.216,14.92 450.776,3.184 466.184,3.184 C481.376,3.184 489.296,14.272 489.296,26.8 L489.296,26.8 Z M516.944,52.144 L519.68,52.144 L540.344,1.6 L537.824,1.6 L518.312,49.408 L498.8,1.6 L496.208,1.6 L516.944,52.144 Z M552.8,49.768 L552.8,27.664 L583.04,27.664 L583.04,25.432 L552.8,25.432 L552.8,3.832 L584.552,3.832 L584.552,1.6 L550.496,1.6 L550.496,52 L585.632,52 L585.632,49.768 L552.8,49.768 Z M635.6,43.432 C631.064,47.896 625.088,50.2 619.112,50.2 C604.064,50.2 595.856,39.688 595.712,27.016 C595.64,14.056 603.776,3.256 619.112,3.256 C625.088,3.256 631.064,5.416 635.672,10.024 L637.256,8.512 C632.288,3.472 625.664,1.024 619.112,1.024 C602.048,1.024 593.192,13.552 593.408,27.088 C593.48,40.768 602.552,52.432 619.112,52.432 C625.592,52.432 632.288,49.912 637.256,44.872 L635.6,43.432 Z" id="MICHAL-HOTOVEC" fill="#EC8383"></path>
                <path d="M44.48,52 L46.784,52 L46.784,1.6 L43.544,1.6 L23.672,32.848 L3.512,1.6 L0.488,1.6 L0.488,52 L2.792,52 L2.792,4.696 L23.384,36.376 L24.104,36.376 L44.48,4.552 L44.48,52 Z M64.064,52 L64.064,1.6 L61.76,1.6 L61.76,52 L64.064,52 Z M117.92,43.432 C113.384,47.896 107.408,50.2 101.432,50.2 C86.384,50.2 78.176,39.688 78.032,27.016 C77.96,14.056 86.096,3.256 101.432,3.256 C107.408,3.256 113.384,5.416 117.992,10.024 L119.576,8.512 C114.608,3.472 107.984,1.024 101.432,1.024 C84.368,1.024 75.512,13.552 75.728,27.088 C75.8,40.768 84.872,52.432 101.432,52.432 C107.912,52.432 114.608,49.912 119.576,44.872 L117.92,43.432 Z M169.832,52 L169.832,1.6 L167.528,1.6 L167.528,26.224 L133.184,26.224 L133.184,1.6 L130.88,1.6 L130.88,52 L133.184,52 L133.184,28.456 L167.528,28.456 L167.528,52 L169.832,52 Z M179.624,52 L182.36,52 L188.12,38.896 L219.008,38.896 L224.84,52 L227.576,52 L204.968,1.6 L202.232,1.6 L179.624,52 Z M188.984,36.664 L203.6,3.76 L218.072,36.664 L188.984,36.664 Z M237.368,1.6 L237.368,52 L268.832,52 L268.832,49.768 L239.672,49.768 L239.672,1.6 L237.368,1.6 Z" id="MICHAL-HOTOVEC-Copy" fill="#99E0E1"></path>
            </g>
        </g>
    </g>
</svg>